ffmpeg version 4.2.4-1ubuntu0.1 Copyright (c) 2000-2020 the FFmpeg developers
  built with gcc 9 (Ubuntu 9.3.0-10ubuntu2)
  configuration: --prefix=/usr --extra-version=1ubuntu0.1 --toolchain=hardened --libdir=/usr/lib/x86_64-linux-gnu --incdir=/usr/include/x86_64-linux-gnu --arch=amd64 --enable-gpl --disable-stripping --enable-avresample --disable-filter=resample --enable-avisynth --enable-gnutls --enable-ladspa --enable-libaom --enable-libass --enable-libbluray --enable-libbs2b --enable-libcaca --enable-libcdio --enable-libcodec2 --enable-libflite --enable-libfontconfig --enable-libfreetype --enable-libfribidi --enable-libgme --enable-libgsm --enable-libjack --enable-libmp3lame --enable-libmysofa --enable-libopenjpeg --enable-libopenmpt --enable-libopus --enable-libpulse --enable-librsvg --enable-librubberband --enable-libshine --enable-libsnappy --enable-libsoxr --enable-libspeex --enable-libssh --enable-libtheora --enable-libtwolame --enable-libvidstab --enable-libvorbis --enable-libvpx --enable-libwavpack --enable-libwebp --enable-libx265 --enable-libxml2 --enable-libxvid --enable-libzmq --enable-libzvbi --enable-lv2 --enable-omx --enable-openal --enable-opencl --enable-opengl --enable-sdl2 --enable-libdc1394 --enable-libdrm --enable-libiec61883 --enable-nvenc --enable-chromaprint --enable-frei0r --enable-libx264 --enable-shared
  libavutil      56. 31.100 / 56. 31.100
  libavcodec     58. 54.100 / 58. 54.100
  libavformat    58. 29.100 / 58. 29.100
  libavdevice    58.  8.100 / 58.  8.100
  libavfilter     7. 57.100 /  7. 57.100
  libavresample   4.  0.  0 /  4.  0.  0
  libswscale      5.  5.100 /  5.  5.100
  libswresample   3.  5.100 /  3.  5.100
  libpostproc    55.  5.100 / 55.  5.100
Input #0, image2, from '/home/martijn/Documents/uva/thesis/CoMeT/test/test-installation/comet_results/gainestown_3Dmem_8core_2L/video/heatmap_%d.png':
  Duration: 00:00:02.00, start: 0.000000, bitrate: N/A
    Stream #0:0: Video: png, rgba(pc), 1250x701 [SAR 3937:3937 DAR 1250:701], 1 tbr, 1 tbn, 1 tbc
Stream mapping:
  Stream #0:0 -> #0:0 (png (native) -> mpeg4 (native))
Press [q] to stop, [?] for help
Output #0, avi, to '/home/martijn/Documents/uva/thesis/CoMeT/test/test-installation/comet_results/gainestown_3Dmem_8core_2L/video/output.avi':
  Metadata:
    ISFT            : Lavf58.29.100
    Stream #0:0: Video: mpeg4 (xvid / 0x64697678), yuv420p, 1250x701 [SAR 1:1 DAR 1250:701], q=2-31, 200 kb/s, 1 fps, 1 tbn, 1 tbc
    Metadata:
      encoder         : Lavc58.54.100 mpeg4
    Side data:
      cpb: bitrate max/min/avg: 0/0/200000 buffer size: 0 vbv_delay: -1
frame=    2 fps=0.0 q=4.0 Lsize=     112kB time=00:00:02.00 bitrate= 459.7kbits/s speed=53.8x    
video:107kB audio:0kB subtitle:0kB other streams:0kB global headers:0kB muxing overhead: 5.326539%


Received temperature filename: /home/martijn/Documents/uva/thesis/CoMeT/test/test-installation/comet_results/gainestown_3Dmem_8core_2L/combined_temperature.trace
Received output directory name: /home/martijn/Documents/uva/thesis/CoMeT/test/test-installation/comet_results/gainestown_3Dmem_8core_2L/video
Setting sampling rate: 1
Setting min. temperature limit (blue color): 65.0
Setting max. temperature limit (red color) : 81.0


Processing line 0
Processing line 1
